<svg width="80" height="100" viewBox="0 0 80 100" xmlns="http://www.w3.org/2000/svg">
  <!-- Boss Idle (Imposing Mechanical Stance) -->
  
  <!-- Legs (heavy armored) -->
  <rect x="16" y="64" width="14" height="26" fill="#1a0505"/>
  <rect x="50" y="64" width="14" height="26" fill="#1a0505"/>
  
  <!-- Boots (massive) -->
  <rect x="14" y="86" width="18" height="8" fill="#0a0202"/>
  <rect x="48" y="86" width="18" height="8" fill="#0a0202"/>
  
  <!-- Body (heavy armor) -->
  <rect x="8" y="26" width="64" height="44" fill="#2c0a0a"/>
  <rect x="12" y="30" width="56" height="36" fill="#3d0e0e"/>
  <rect x="16" y="34" width="48" height="24" fill="#5c1919"/>
  
  <!-- Core (glowing) -->
  <rect x="28" y="40" width="24" height="16" fill="#ff3232"/>
  <rect x="30" y="42" width="20" height="12" fill="#ff5555"/>
  <rect x="32" y="44" width="16" height="8" fill="#ff8888"/>
  
  <!-- Armor plates -->
  <rect x="18" y="36" width="12" height="12" fill="#1a0505"/>
  <rect x="50" y="36" width="12" height="12" fill="#1a0505"/>
  
  <!-- Head (armored helmet) -->
  <rect x="18" y="6" width="44" height="24" fill="#1a0505"/>
  <rect x="20" y="8" width="40" height="16" fill="#3d0e0e"/>
  <rect x="22" y="10" width="36" height="8" fill="#5c1919"/>
  
  <!-- Face plate -->
  <rect x="24" y="12" width="32" height="10" fill="#b0855a"/>
  
  <!-- Glowing eyes -->
  <rect x="24" y="12" width="10" height="4" fill="#ff0000"/>
  <rect x="46" y="12" width="10" height="4" fill="#ff0000"/>
  
  <!-- Helmet crest -->
  <rect x="28" y="4" width="24" height="4" fill="#5c1919"/>
  
  <!-- Shoulder cannons -->
  <rect x="0" y="30" width="12" height="20" fill="#2a0808"/>
  <rect x="2" y="32" width="10" height="12" fill="#3d0e0e"/>
  <rect x="68" y="30" width="12" height="20" fill="#2a0808"/>
  <rect x="68" y="32" width="10" height="12" fill="#3d0e0e"/>
  
  <!-- Cannon barrels -->
  <rect x="0" y="34" width="4" height="4" fill="#1a0505"/>
  <rect x="76" y="34" width="4" height="4" fill="#1a0505"/>
</svg>