<svg width="32" height="48" viewBox="0 0 32 48" xmlns="http://www.w3.org/2000/svg">
  <!-- Heavy Idle Stance (LMG Braced) -->
  
  <!-- Legs (wide stance) -->
  <rect x="4" y="32" width="10" height="16" fill="#1a1a2e"/>
  <rect x="18" y="32" width="10" height="16" fill="#1a1a2e"/>
  
  <!-- Boots (heavy) -->
  <rect x="3" y="44" width="12" height="4" fill="#0a0a14"/>
  <rect x="17" y="44" width="12" height="4" fill="#0a0a14"/>
  
  <!-- Body (large) -->
  <rect x="2" y="14" width="28" height="22" fill="#2d132c"/>
  <rect x="4" y="16" width="24" height="16" fill="#4a2349"/>
  
  <!-- Armor plates -->
  <rect x="6" y="18" width="8" height="10" fill="#1a0f19"/>
  <rect x="18" y="18" width="8" height="10" fill="#1a0f19"/>
  
  <!-- Arms (thick) -->
  <rect x="0" y="16" width="6" height="16" fill="#2d132c"/>
  <rect x="26" y="16" width="6" height="16" fill="#2d132c"/>
  
  <!-- Gloves -->
  <rect x="0" y="30" width="6" height="6" fill="#1a0f19"/>
  <rect x="26" y="30" width="6" height="6" fill="#1a0f19"/>
  
  <!-- Head -->
  <rect x="8" y="2" width="16" height="14" fill="#b0855a"/>
  
  <!-- Heavy helmet -->
  <rect x="5" y="0" width="22" height="10" fill="#1a0f19"/>
  <rect x="5" y="8" width="22" height="3" fill="#2d132c"/>
  <rect x="4" y="8" width="24" height="1" fill="#0a0510"/>
  
  <!-- Visor (red) -->
  <rect x="9" y="6" width="14" height="4" fill="#1a1a1a"/>
  <rect x="10" y="7" width="4" height="2" fill="#c0392b"/>
  <rect x="16" y="7" width="4" height="2" fill="#c0392b"/>
  
  <!-- LMG (resting on ground) -->
  <rect x="0" y="30" width="30" height="5" fill="#4a4a5a"/>
  <rect x="2" y="30" width="10" height="5" fill="#333344"/>
  <rect x="26" y="31" width="8" height="3" fill="#2a2a3a"/>
  <rect x="12" y="35" width="4" height="6" fill="#333344"/>
  <rect x="18" y="28" width="4" height="2" fill="#555"/>
  <rect x="18" y="35" width="4" height="2" fill="#555"/>
  
  <!-- Bipod legs -->
  <rect x="26" y="35" width="2" height="6" fill="#444"/>
  <rect x="28" y="35" width="2" height="6" fill="#444"/>
</svg>