<svg xmlns="http://www.w3.org/2000/svg" viewBox="0 0 512 512">
  <defs>
    <style> .s{fill:#fff;stroke:#000;stroke-width:8;stroke-miterlimit:10}</style>
  </defs>
  <circle cx="256" cy="256" r="240" fill="#ffffff" stroke="#000" stroke-width="8"/>
  <g fill="#111">
    <path d="M256 44c-9 0-18 .6-27 1.8l-22 56 49 32 49-32-22-56c-9.2-1.2-18.8-1.8-29-1.8z"/>
    <path d="M150 86l-36 42 36 40 58-8 24-64-82-10z"/>
    <path d="M362 86l82 10-24 64-58 8-36-40 36-42z"/>
    <path d="M83 210l32 32 16 72-46-12-2-92z"/>
    <path d="M429 210l-32 32-16 72 46-12 2-92z"/>
    <path d="M256 380l-40 38 14 62 26-12 26 12 14-62-40-38z"/>
    <path d="M156 270l-52 18 8 36 68 18 22-48-46-24z"/>
    <path d="M356 270l52 18-8 36-68 18-22-48 46-24z"/>
  </g>
  <circle cx="256" cy="256" r="208" fill="none" stroke="#000" stroke-width="6"/>
</svg>
