<svg xmlns="http://www.w3.org/2000/svg" viewBox="0 0 140 140">
  <rect width="140" height="140" rx="14" fill="#ffffff"/>
  <!-- jersey body -->
  <path d="M24 38 C44 18, 96 18, 116 38 L116 106 C96 126, 44 126, 24 106 Z" fill="#ffffff" stroke="#e6e6e6" stroke-width="1"/>
  <!-- collar -->
  <path d="M64 42 L76 42 L80 52 L60 52 Z" fill="#ffd700"/>
  <!-- shoulder stripes (blue) -->
  <path d="M32 46 L48 44 L52 56 L36 58 Z" fill="#0033a0"/>
  <path d="M108 46 L92 44 L88 56 L104 58 Z" fill="#0033a0"/>
  <!-- subtle red piping -->
  <path d="M40 60 L100 60" stroke="#c8102e" stroke-width="2" stroke-linecap="round" opacity="0.8" />
  <!-- chest badge block (gold) -->
  <rect x="58" y="64" width="24" height="18" rx="3" fill="#ffd700"/>
  <text x="70" y="76" font-size="10" text-anchor="middle" fill="#0b0b0b" font-family="Arial" font-weight="700">RMCF</text>
  <!-- lower details -->
  <rect x="44" y="92" width="52" height="8" rx="4" fill="#f3f3f3"/>
  <text x="70" y="118" font-size="10" text-anchor="middle" fill="#0b0b0b" font-family="Arial">Home Kit</text>
</svg>
